<svg width="44" height="44" viewBox="0 0 44 44" fill="none" xmlns="http://www.w3.org/2000/svg">
<path d="M21.9999 0.333374C10.0399 0.333374 0.333252 10.04 0.333252 22C0.333252 33.96 10.0399 43.6667 21.9999 43.6667C33.9599 43.6667 43.6666 33.96 43.6666 22C43.6666 10.04 33.9599 0.333374 21.9999 0.333374ZM21.9999 39.3334C12.4449 39.3334 4.66659 31.555 4.66659 22C4.66659 12.445 12.4449 4.66671 21.9999 4.66671C31.5549 4.66671 39.3333 12.445 39.3333 22C39.3333 31.555 31.5549 39.3334 21.9999 39.3334ZM31.9449 12.4234L17.6666 26.7017L12.0549 21.1117L8.99992 24.1667L17.6666 32.8334L34.9999 15.5L31.9449 12.4234Z" fill="#00C850"/>
</svg>
