<svg width="24" height="24" viewBox="0 0 24 24" fill="none" xmlns="http://www.w3.org/2000/svg">
<path d="M12 6.50001C14.76 6.50001 17 8.74001 17 11.5C17 12.01 16.9 12.5 16.76 12.96L19.82 16.02C21.21 14.79 22.31 13.25 23 11.49C21.27 7.11001 17 4.00001 12 4.00001C10.73 4.00001 9.51 4.20001 8.36 4.57001L10.53 6.74001C11 6.60001 11.49 6.50001 12 6.50001ZM3.42 2.45001L2.01 3.87001L4.69 6.55001C3.06 7.83001 1.77 9.53001 1 11.5C2.73 15.89 7 19 12 19C13.52 19 14.97 18.7 16.31 18.18L19.74 21.61L21.15 20.2L3.42 2.45001ZM12 16.5C9.24 16.5 7 14.26 7 11.5C7 10.73 7.18 10 7.49 9.36001L9.06 10.93C9.03 11.11 9 11.3 9 11.5C9 13.16 10.34 14.5 12 14.5C12.2 14.5 12.38 14.47 12.57 14.43L14.14 16C13.49 16.32 12.77 16.5 12 16.5ZM14.97 11.17C14.82 9.77001 13.72 8.68001 12.33 8.53001L14.97 11.17Z" fill="#928377"/>
</svg>
