<svg width="300" height="67" viewBox="0 0 300 67" fill="none" xmlns="http://www.w3.org/2000/svg">
<g clip-path="url(#clip0)">
<path d="M92.6557 48.0051V50.25H87.1953V52.4948H91.9731V54.567H87.1953V56.9845H92.8263V59.0567H84.6357V48.0051H92.6557Z" fill="#1F2836"/>
<path d="M112.961 48.0051H115.35V59.0567H112.961L107.672 52.1495V59.0567H105.283V48.0051H107.501L112.961 55.085V48.0051Z" fill="#1F2836"/>
<path d="M133.096 50.0773V59.0567H130.537V50.0773H127.465V48.0051H136.168V50.0773H133.096Z" fill="#1F2836"/>
<path d="M156.132 48.0051V50.25H150.672V52.4948H155.62V54.567H150.672V56.9845H156.303V59.0567H148.112V48.0051H156.132Z" fill="#1F2836"/>
<path d="M177.632 51.6314C177.632 53.3582 176.95 54.5669 175.585 55.085L178.315 59.0566H175.243L172.855 55.4303H171.148V59.0566H168.759V47.8324H173.025C174.732 47.8324 175.926 48.1778 176.779 48.6958C177.291 49.3865 177.632 50.4226 177.632 51.6314ZM173.025 53.3582C173.878 53.3582 174.39 53.1855 174.732 53.0128C175.073 52.6674 175.243 52.3221 175.243 51.6314C175.243 51.1133 175.073 50.5953 174.732 50.4226C174.39 50.2499 173.878 50.0772 173.025 50.0772H171.148V53.3582H173.025Z" fill="#1F2836"/>
<path d="M194.355 48.0051C196.061 48.0051 197.255 48.3505 198.109 49.0412C198.962 49.7319 199.303 50.768 199.303 52.1495C199.303 53.5309 198.962 54.567 198.109 55.2577C197.255 55.9484 196.061 56.2938 194.525 56.2938H192.989V59.402H190.601V48.1778H194.355V48.0051ZM194.525 53.8763C195.378 53.8763 195.89 53.7036 196.232 53.3582C196.573 53.0129 196.743 52.4948 196.743 51.8041C196.743 51.1134 196.573 50.768 196.232 50.4227C195.89 50.0773 195.208 50.0773 194.525 50.0773H193.16V53.8763H194.525Z" fill="#1F2836"/>
<path d="M220.292 51.6314C220.292 53.3582 219.609 54.5669 218.244 55.085L220.974 59.0566H217.903L215.514 55.4303H213.807V59.0566H211.418V47.8324H215.684C217.391 47.8324 218.585 48.1778 219.268 48.6958C219.95 49.3865 220.292 50.4226 220.292 51.6314ZM215.684 53.3582C216.538 53.3582 217.049 53.1855 217.391 53.0128C217.732 52.6674 217.903 52.3221 217.903 51.6314C217.903 51.1133 217.732 50.5953 217.391 50.4226C217.049 50.2499 216.538 50.0772 215.684 50.0772H213.807V53.3582H215.684Z" fill="#1F2836"/>
<path d="M233.089 48.0051H235.478V59.0567H233.089V48.0051Z" fill="#1F2836"/>
<path d="M252.03 49.9046C251.689 49.9046 251.347 50.0773 251.006 50.25C250.835 50.4227 250.665 50.768 250.665 51.1134C250.665 51.4588 250.835 51.6314 251.177 51.8041C251.518 51.9768 252.2 52.1495 253.224 52.4948C254.248 52.8402 255.101 53.1856 255.613 53.7036C256.125 54.2216 256.466 54.9124 256.466 55.9485C256.466 56.9845 256.125 57.6753 255.272 58.366C254.589 59.0567 253.566 59.2294 252.371 59.2294C250.665 59.2294 249.129 58.5387 247.593 57.3299L249.129 55.4304C250.323 56.4665 251.347 56.9845 252.371 56.9845C252.883 56.9845 253.224 56.8119 253.395 56.6392C253.736 56.4665 253.736 56.1211 253.736 55.7758C253.736 55.4304 253.566 55.2577 253.395 54.9124C253.054 54.7397 252.542 54.567 251.689 54.3943C250.323 54.049 249.47 53.7036 248.788 53.1856C248.276 52.6675 247.935 51.9768 247.935 50.9407C247.935 49.9046 248.276 49.0412 249.129 48.5232C249.812 48.0052 250.835 47.6598 252.03 47.6598C252.712 47.6598 253.566 47.8325 254.248 48.0051C254.931 48.1778 255.613 48.6959 256.125 49.0412L254.931 50.9407C254.077 50.25 253.054 49.9046 252.03 49.9046Z" fill="#1F2836"/>
<path d="M276.772 48.0051V50.25H271.311V52.4948H276.26V54.567H271.311V56.9845H276.943V59.0567H268.752V48.0051H276.772Z" fill="#1F2836"/>
<path d="M292.982 49.9046C292.641 49.9046 292.3 50.0773 291.959 50.25C291.788 50.4227 291.617 50.768 291.617 51.1134C291.617 51.4588 291.788 51.6314 292.129 51.8041C292.471 51.9768 293.153 52.1495 294.177 52.4948C295.201 52.8402 296.054 53.1856 296.566 53.7036C297.078 54.2216 297.419 54.9124 297.419 55.9485C297.419 56.9845 297.078 57.6753 296.225 58.366C295.542 59.0567 294.518 59.2294 293.324 59.2294C291.617 59.2294 290.082 58.5387 288.546 57.3299L290.082 55.4304C291.276 56.4665 292.3 56.9845 293.324 56.9845C293.836 56.9845 294.177 56.8119 294.348 56.6392C294.689 56.4665 294.689 56.1211 294.689 55.7758C294.689 55.4304 294.518 55.2577 294.348 54.9124C294.006 54.7397 293.494 54.567 292.641 54.3943C291.276 54.049 290.423 53.7036 289.911 53.1856C289.399 52.6675 289.058 51.9768 289.058 50.9407C289.058 49.9046 289.399 49.0412 290.252 48.5232C290.935 48.0052 291.959 47.6598 293.153 47.6598C293.836 47.6598 294.689 47.8325 295.371 48.0051C296.054 48.1778 296.736 48.6959 297.248 49.0412L296.054 50.9407C294.859 50.25 294.006 49.9046 292.982 49.9046Z" fill="#1F2836"/>
<path d="M8.87318 55.2578V52.3222C8.87318 52.1495 8.87318 51.9768 8.70255 51.8042C-0.511816 39.5439 9.32978e-05 22.4485 10.5795 11.7423C19.282 2.9356 32.2504 1.03612 43.3417 5.87117C43.5124 6.04385 43.8536 5.87117 44.0243 5.87117C44.7068 5.52581 45.3894 5.00777 46.0719 4.66241C46.2425 4.48973 46.2425 4.31705 46.0719 4.31705C41.6354 2.24488 36.6869 1.2088 31.3972 1.38148C14.5042 1.72684 0.853275 15.3686 9.30912e-05 32.2913C-0.34118 41.4433 2.90091 49.9047 8.53191 56.1212C8.87318 56.4665 8.87318 55.9485 8.87318 55.2578Z" fill="#1C2D3C"/>
<path d="M55.6277 15.3685C65.3539 27.6288 65.0127 45.2422 54.2626 56.1211C46.072 64.4098 33.7862 66.6546 23.2068 62.6829C23.0361 62.6829 22.8655 62.6829 22.6948 62.6829C21.671 63.201 20.8178 63.5464 20.1353 63.8917C19.9647 63.8917 19.9647 64.2371 20.1353 64.2371C24.0599 65.9639 28.4965 66.8273 33.1037 66.6546C49.826 66.3092 64.3301 51.8041 64.842 34.8814C65.1833 26.2474 62.1118 18.4768 56.9927 12.4329C56.9927 12.2603 56.8221 12.4329 56.6515 12.4329C56.4808 12.7783 56.3102 13.1237 56.1396 13.469C55.9689 13.8144 55.7983 14.1598 55.6277 14.6778C55.457 15.0232 55.457 15.1958 55.6277 15.3685Z" fill="#1C2D3C"/>
<path d="M9.55568 37.299L9.72631 40.2345C9.72631 40.4072 10.0676 40.5799 10.0676 40.2345C10.5795 39.1985 11.4327 37.6443 13.3097 36.0902C15.3573 34.1907 21.8415 32.1186 29.5201 28.3196C38.2226 24.0026 49.1433 19.8582 53.2386 11.3969C54.9449 7.9433 55.6275 4.31701 55.6275 0.863403C55.6275 -0.17268 55.4568 -0.34536 54.7743 0.690722C48.802 9.32474 20.9883 19.8582 16.0399 22.4485C9.72631 25.9021 9.2144 31.4278 9.55568 37.299Z" fill="#9C8778"/>
<path d="M17.917 47.3145C24.0599 44.7243 31.9092 41.2706 32.7623 40.7526C43.0005 36.2629 45.5601 26.5928 45.9013 24.348C45.9013 24.1753 45.7307 24.0026 45.5601 24.1753C40.0997 27.4562 16.7225 37.9897 16.7225 37.9897C13.3098 39.8892 10.9209 43.6882 10.9209 47.8325C10.9209 48.6959 10.9209 52.8402 11.0915 54.2217C11.0915 54.3944 11.2622 54.3944 11.2622 54.2217C12.4566 51.4588 14.6749 49.0413 17.917 47.3145Z" fill="#9C8778"/>
<path d="M12.2856 66.9999C13.4801 64.237 15.6984 61.9922 18.4286 60.7834C21.1587 59.402 25.5953 57.6752 30.885 55.4303C39.2462 51.804 47.2661 48.8685 51.3614 41.7886C53.7503 37.8169 54.2622 34.8814 54.6035 32.2912C54.6035 31.7731 54.6035 31.0824 54.4328 31.0824C54.2622 31.0824 54.2622 31.2551 53.9209 31.7731C51.0201 37.1262 37.1985 42.9973 19.1111 50.9406C18.9405 51.1133 18.5992 51.1133 18.4286 51.286C15.6984 52.6675 14.1626 54.7396 13.3095 57.1571C12.9682 58.1932 12.6269 59.2293 12.6269 60.2654C12.4563 61.1288 12.4563 62.1649 12.4563 63.201V66.6546C12.2856 66.9999 12.2856 66.9999 12.2856 66.9999Z" fill="#9C8778"/>
<path d="M97.4332 10.5335H92.826H91.9729C90.949 10.5335 90.4371 10.7062 90.4371 10.7062V20.0309H96.58C96.9213 20.0309 97.0919 18.8222 97.0919 16.4046L99.1396 16.0593L98.9689 21.2397C98.9689 22.6211 98.9689 24.1752 99.1396 25.9021L96.9213 26.2474C96.9213 24.866 96.9213 23.8299 96.9213 23.4845C96.9213 23.1392 96.7507 22.9665 96.58 22.9665H90.4371V30.7371C90.4371 31.6005 90.6078 32.1185 91.1197 32.2912C91.6316 32.4639 92.3141 32.6366 93.3379 32.6366H96.7507C100.163 32.6366 102.382 30.9098 103.576 27.2835L105.624 27.6289C105.624 27.9742 105.282 29.3557 104.6 31.6005C103.917 33.8454 103.405 34.8814 103.064 34.8814H94.5324H87.7069C86.3419 34.8814 84.8061 34.8814 82.9291 35.0541L82.4172 32.982C83.6117 32.982 84.4649 32.8093 84.8061 32.6366C85.1474 32.4639 85.318 32.1185 85.318 31.6005V11.5696C85.318 11.0515 85.1474 10.7062 84.8061 10.5335C84.4649 10.3608 83.7823 10.1881 82.7585 10.1881L82.2466 8.11597C85.1474 8.11597 87.0244 8.28865 87.3657 8.28865H96.9213H102.723C103.064 8.97937 103.235 10.0155 103.235 11.5696C103.235 13.1237 103.235 14.3325 103.064 15.5412L101.358 15.1959C101.017 13.4691 100.675 12.2603 99.9928 11.3969C99.4809 10.8789 98.6277 10.5335 97.4332 10.5335Z" fill="#1F2836"/>
<path d="M133.267 10.3608C130.366 10.3608 128.319 11.3969 126.783 13.4691C125.247 15.5412 124.565 18.1315 124.565 21.2397C124.565 24.3479 125.418 27.1108 127.295 29.3557C129.001 31.6005 131.39 32.6366 134.291 32.6366C138.045 32.6366 140.775 30.7371 142.311 26.9382L144.87 27.4562C144.87 27.6289 144.529 28.665 143.847 30.5644C143.164 32.4639 142.823 33.3273 142.652 33.3273C140.093 34.7088 137.021 35.3995 133.608 35.3995C129.342 35.3995 125.759 34.1907 123.029 31.7732C120.299 29.3557 118.934 26.0748 118.934 22.1031C118.934 17.6134 120.299 14.1598 123.2 11.5696C126.1 8.97939 129.684 7.77063 134.12 7.77063C135.997 7.77063 138.216 8.11599 140.434 8.63403C141.628 8.80671 142.652 8.97939 143.505 9.15207C143.847 9.67011 143.847 10.7062 143.847 12.0876C143.847 13.4691 143.847 14.8505 143.676 16.4046L140.946 16.0593C140.775 14.5052 140.434 13.4691 139.922 12.6057C138.557 11.2242 136.509 10.3608 133.267 10.3608Z" fill="#1F2836"/>
<path d="M183.946 35.0541L179.168 34.8814C178.144 34.8814 177.291 34.8814 176.609 34.8814C175.585 33.6727 173.708 31.4278 170.807 28.1469C167.906 24.866 166.2 23.1392 165.858 23.1392V31.6005C165.858 32.1185 166.029 32.4639 166.37 32.6366C166.712 32.8093 167.394 32.982 168.418 32.982L168.93 35.0541C166.029 35.0541 163.982 34.8814 162.787 34.8814C161.763 34.8814 160.228 34.8814 158.351 35.0541L157.839 32.982C159.033 32.982 159.886 32.8093 160.228 32.6366C160.569 32.4639 160.739 32.1185 160.739 31.6005V11.5696C160.739 11.0515 160.569 10.7062 160.228 10.5335C159.886 10.3608 159.204 10.1881 158.18 10.1881L157.668 8.11597C160.569 8.11597 162.616 8.28865 163.811 8.28865C164.835 8.28865 166.37 8.28865 168.247 8.11597L168.759 10.1881C167.565 10.1881 166.712 10.3608 166.37 10.5335C166.029 10.7062 165.858 11.0515 165.858 11.5696V20.549C167.394 19.1675 169.271 17.0954 171.489 14.8505C173.708 12.433 174.732 11.0515 174.732 10.7062C174.732 10.3608 173.878 10.1881 172.343 10.1881L171.831 8.11597C174.732 8.11597 176.779 8.28865 177.974 8.28865C178.997 8.28865 180.533 8.28865 182.41 8.11597L182.922 10.1881C180.363 10.1881 178.827 10.7062 178.144 11.3969L169.954 20.3763L180.363 31.7732C181.216 32.6366 182.41 33.1546 183.775 33.1546L183.946 35.0541Z" fill="#1F2836"/>
<path d="M206.47 15.0232L203.569 23.1392H209.712L206.47 15.0232ZM199.303 34.8814L194.696 35.0541L194.354 32.982C195.208 32.982 195.89 32.6366 196.402 32.2912C196.914 31.9459 197.426 31.6005 197.597 31.0825C197.767 30.7371 198.108 30.0464 198.45 29.183L206.128 8.11597H209.37L218.073 29.8737C218.585 31.0825 218.926 31.7732 219.438 32.2912C219.95 32.8093 220.632 32.982 221.486 32.982L221.827 35.0541C220.632 35.0541 218.755 34.8814 216.196 34.8814C213.636 34.8814 211.759 34.8814 210.565 35.0541L210.224 32.982C211.589 32.982 212.271 32.8093 212.613 32.6366C212.954 32.4639 213.124 32.2912 213.124 31.9459C213.124 31.7732 213.124 31.4278 212.954 31.0825L210.394 25.384H202.374L200.839 29.8737C200.668 30.2191 200.668 30.3917 200.668 30.7371C200.668 31.2551 201.009 31.7732 201.521 32.1185C202.204 32.4639 203.057 32.8093 204.422 32.8093L204.763 34.8814H199.303Z" fill="#1F2836"/>
<path d="M242.474 10.7062V21.4124C242.816 21.4124 243.327 21.4124 244.01 21.4124C245.887 21.4124 247.423 20.8943 248.447 19.8582C249.47 18.8222 249.982 17.4407 249.982 15.7139C249.982 13.9871 249.47 12.6057 248.447 11.9149C247.423 11.0515 246.228 10.7062 244.692 10.7062C243.157 10.5335 242.474 10.5335 242.474 10.7062ZM260.391 35.0541L256.637 34.8814C255.784 34.8814 254.419 34.8814 252.371 34.8814C252.2 34.5361 251.859 34.1907 251.518 33.6727C251.177 33.1546 250.835 32.4639 250.323 31.7732C249.812 31.0825 248.958 29.701 247.764 27.8015C246.569 25.9021 245.546 24.3479 244.863 23.4845H242.474V31.6005C242.474 32.1185 242.645 32.4639 242.986 32.6366C243.327 32.8093 244.01 32.982 245.034 32.982L245.546 35.0541C242.645 35.0541 240.597 34.8814 239.403 34.8814C238.379 34.8814 236.843 34.8814 234.966 35.0541L234.454 32.982C235.649 32.982 236.502 32.8093 236.843 32.6366C237.185 32.4639 237.355 32.1185 237.355 31.6005V11.5696C237.355 11.0515 237.185 10.7062 236.843 10.5335C236.502 10.3608 235.819 10.1881 234.796 10.1881L234.284 8.11597C237.185 8.11597 239.062 8.28865 239.403 8.28865L244.863 8.11597C247.764 8.11597 250.153 8.80669 252.03 10.0155C253.907 11.2242 254.76 13.1237 254.76 15.5412C254.76 18.8222 253.054 21.2397 249.641 22.6211C250.665 24.0026 251.518 25.0386 251.859 25.7294C254.589 29.5283 256.125 31.4278 256.296 31.7732C257.149 32.6366 258.173 33.1546 259.367 33.1546L260.391 35.0541Z" fill="#1F2836"/>
<path d="M292.129 29.8737C293.836 27.9742 294.518 25.2113 294.518 21.7577C294.518 18.1314 293.665 15.3685 291.788 13.4691C289.911 11.5696 287.181 10.5335 283.768 10.5335H281.038C280.356 10.5335 280.014 10.7062 280.014 10.8789V30.3917C280.014 31.0825 280.014 31.4278 280.185 31.7732C280.356 32.1185 280.697 32.2912 281.55 32.4639C282.233 32.6366 283.427 32.8093 285.133 32.8093C288.034 32.6366 290.423 31.7732 292.129 29.8737ZM283.939 35.0541L277.284 34.8814C275.919 34.8814 274.383 34.8814 272.506 35.0541L271.994 32.982C273.189 32.982 274.042 32.8093 274.383 32.6366C274.725 32.4639 274.895 32.1185 274.895 31.6005V11.5696C274.895 11.0515 274.725 10.7062 274.383 10.5335C274.042 10.3608 273.359 10.1881 272.336 10.1881L271.824 8.11597C274.725 8.11597 276.602 8.28865 276.943 8.28865H284.28C289.229 8.28865 292.983 9.32473 295.713 11.5696C298.443 13.8144 299.808 17.0954 299.808 21.2397C299.808 25.384 298.443 28.8376 295.542 31.2551C293.153 33.6727 289.229 35.0541 283.939 35.0541Z" fill="#1F2836"/>
<path fill-rule="evenodd" clip-rule="evenodd" d="M82.4175 40.4072H299.979V41.2706H82.4175V40.4072Z" fill="#1F2836"/>
</g>
<defs>
<clipPath id="clip0">
<rect width="300" height="67" fill="white"/>
</clipPath>
</defs>
</svg>
