<svg width="41" height="40" viewBox="0 0 41 40" fill="none" xmlns="http://www.w3.org/2000/svg">
<path d="M33.833 3.33337H13.833C11.9997 3.33337 10.4997 4.83337 10.4997 6.66671V26.6667C10.4997 28.5 11.9997 30 13.833 30H33.833C35.6663 30 37.1663 28.5 37.1663 26.6667V6.66671C37.1663 4.83337 35.6663 3.33337 33.833 3.33337ZM33.833 26.6667H13.833V6.66671H33.833V26.6667ZM7.16634 10H3.83301V33.3334C3.83301 35.1667 5.33301 36.6667 7.16634 36.6667H30.4997V33.3334H7.16634V10ZM27.1663 20V15C27.1663 14.0834 26.4163 13.3334 25.4997 13.3334H22.1663V21.6667H25.4997C26.4163 21.6667 27.1663 20.9167 27.1663 20ZM23.833 15H25.4997V20H23.833V15ZM30.4997 18.3334H32.1663V16.6667H30.4997V15H32.1663V13.3334H28.833V21.6667H30.4997V18.3334ZM17.1663 18.3334H18.833C19.7497 18.3334 20.4997 17.5834 20.4997 16.6667V15C20.4997 14.0834 19.7497 13.3334 18.833 13.3334H15.4997V21.6667H17.1663V18.3334ZM17.1663 15H18.833V16.6667H17.1663V15Z" fill="#0A2B3C"/>
</svg>
