<svg version="1.1" id="Layer_1" xmlns="http://www.w3.org/2000/svg"  x="0px" y="0px"
	 width="38.75px" height="38.5px" viewBox="380.75 280.75 38.75 38.5" enable-background="new 380.75 280.75 38.75 38.5"
	 xml:space="preserve">
<g>
	<path fill="#D9E3E7" d="M400.28,281.816c-10.043,0-18.184,8.141-18.184,18.184s8.141,18.184,18.184,18.184
		c10.042,0,18.184-8.141,18.184-18.184S410.322,281.816,400.28,281.816z M409.981,311.019c-0.971-4.464-4.948-7.763-9.702-7.763
		c-4.754,0-8.732,3.299-9.702,7.762h-1.941c0.777-4.074,3.688-7.471,7.569-8.927c-2.232-1.358-3.687-3.784-3.687-6.597
		c0-4.269,3.493-7.762,7.762-7.762c4.269,0,7.763,3.493,7.763,7.762c0,2.814-1.457,5.24-3.688,6.597
		c3.88,1.359,6.791,4.755,7.566,8.928H409.981z"/>
	<path fill="#D9E3E7" d="M406.101,295.494c0-3.202-2.619-5.822-5.82-5.822s-5.821,2.62-5.821,5.822c0,3.202,2.62,5.82,5.821,5.82
		S406.101,298.696,406.101,295.494z"/>
</g>
</svg>